<svg width="24" height="20" viewBox="0 0 24 20" fill="none" xmlns="http://www.w3.org/2000/svg">
<g id="icon_img">
<path id="Vector" d="M0 2.85714C0 1.28125 1.34531 0 3 0H21C22.6547 0 24 1.28125 24 2.85714V17.1429C24 18.7188 22.6547 20 21 20H3C1.34531 20 0 18.7188 0 17.1429V2.85714ZM15.1781 7.61161C14.9672 7.31696 14.6203 7.14286 14.25 7.14286C13.8797 7.14286 13.5281 7.31696 13.3219 7.61161L9.24375 13.308L8.00156 11.8304C7.78594 11.5759 7.4625 11.4286 7.125 11.4286C6.7875 11.4286 6.45938 11.5759 6.24844 11.8304L3.24844 15.4018C2.97656 15.7232 2.925 16.1652 3.1125 16.5357C3.3 16.9062 3.69375 17.1429 4.125 17.1429H8.625H10.125H19.875C20.2922 17.1429 20.6766 16.9241 20.8688 16.5714C21.0609 16.2188 21.0375 15.7946 20.8031 15.4688L15.1781 7.61161ZM5.25 7.14286C5.84674 7.14286 6.41903 6.91709 6.84099 6.51523C7.26295 6.11337 7.5 5.56832 7.5 5C7.5 4.43168 7.26295 3.88664 6.84099 3.48477C6.41903 3.08291 5.84674 2.85714 5.25 2.85714C4.65326 2.85714 4.08097 3.08291 3.65901 3.48477C3.23705 3.88664 3 4.43168 3 5C3 5.56832 3.23705 6.11337 3.65901 6.51523C4.08097 6.91709 4.65326 7.14286 5.25 7.14286Z" fill="#AEAEAE"/>
</g>
</svg>
