<svg width="74" height="74" viewBox="0 0 74 74" fill="none" xmlns="http://www.w3.org/2000/svg">
<path id="Subtract" fill-rule="evenodd" clip-rule="evenodd" d="M12 0C5.37258 0 0 5.37258 0 12V62C0 68.6274 5.37258 74 12 74H62C68.6274 74 74 68.6274 74 62V12C74 5.37258 68.6274 0 62 0H12ZM43.2541 30.9C44.2829 30.9 45.2465 31.4241 45.8326 32.3109L61.4596 55.9609C62.1107 56.9419 62.1758 58.2184 61.6419 59.28C61.108 60.3416 60.0402 61 58.8811 61H31.7943H27.627H15.1254C13.9273 61 12.8334 60.2878 12.3125 59.1725C11.7916 58.0572 11.9349 56.7269 12.6902 55.7594L21.0246 45.0094C21.6106 44.2434 22.5222 43.8 23.4598 43.8C24.3975 43.8 25.296 44.2434 25.8951 45.0094L29.346 49.4572L40.6756 32.3109C41.2486 31.4241 42.2253 30.9 43.2541 30.9ZM22.6708 29.0108C21.4986 30.2204 19.9086 30.9 18.2508 30.9C16.593 30.9 15.0031 30.2204 13.8308 29.0108C12.6586 27.8012 12 26.1606 12 24.45C12 22.7394 12.6586 21.0988 13.8308 19.8892C15.0031 18.6796 16.593 18 18.2508 18C19.9086 18 21.4986 18.6796 22.6708 19.8892C23.8431 21.0988 24.5016 22.7394 24.5016 24.45C24.5016 26.1606 23.8431 27.8012 22.6708 29.0108Z" fill="#01B0AA"/>
</svg>
