<svg width="73" height="73" viewBox="0 0 73 73" fill="none" xmlns="http://www.w3.org/2000/svg">
<path id="Vector" d="M71.1607 0.905846C72.3156 1.76122 73 3.12983 73 4.56972V14.8343V52.4709C73 58.7722 66.8691 63.876 59.3125 63.876C51.7559 63.876 45.625 58.7722 45.625 52.4709C45.625 46.1696 51.7559 41.0659 59.3125 41.0659C60.9094 41.0659 62.4492 41.294 63.875 41.7217V20.9645L27.375 31.9133V61.595C27.375 67.8962 21.2441 73 13.6875 73C6.13086 73 0 67.8962 0 61.595C0 55.2937 6.13086 50.1899 13.6875 50.1899C15.2844 50.1899 16.8242 50.418 18.25 50.8457V28.5203V18.2558C18.25 16.2456 19.576 14.4636 21.5008 13.8791L67.1258 0.193031C68.5088 -0.220402 70.0059 0.0362117 71.1607 0.905846Z" fill="#665ECD" fill-opacity="0.1"/>
</svg>
