<svg  width="66" height="74" viewBox="0 0 66 74" fill="none" xmlns="http://www.w3.org/2000/svg">
<path id="Vector" style="transition: fill 0.3s ease-in-out;" d="M64.3371 0.918255C65.3812 1.78535 66 3.1727 66 4.63232V15.0375V53.1897C66 59.5773 60.457 64.751 53.625 64.751C46.793 64.751 41.25 59.5773 41.25 53.1897C41.25 46.8021 46.793 41.6284 53.625 41.6284C55.0687 41.6284 56.4609 41.8596 57.75 42.2932V21.2517L24.75 32.3505V62.4387C24.75 68.8263 19.207 74 12.375 74C5.54297 74 0 68.8263 0 62.4387C0 56.0511 5.54297 50.8774 12.375 50.8774C13.8188 50.8774 15.2109 51.1087 16.5 51.5422V28.911V18.5059C16.5 16.4682 17.6988 14.6617 19.4391 14.0692L60.6891 0.195675C61.9395 -0.223421 63.293 0.0367077 64.3371 0.918255Z" fill="#665ECD"/>
</svg>
