<svg width="48" height="62" viewBox="0 0 48 62" fill="none" xmlns="http://www.w3.org/2000/svg">
<path fill-rule="evenodd" clip-rule="evenodd" d="M6.93217 0H41.0678C44.8805 0 48 3.1 48 6.88889V55.1111C48 58.9 44.8805 62 41.0678 62H6.93217C3.11947 62 0 58.9 0 55.1111V6.88889C0 3.1 3.11947 0 6.93217 0ZM24.9604 15.1102C24.6028 14.3357 23.502 14.3357 23.1445 15.1102L19.2196 23.6131C19.0739 23.9288 18.7746 24.1461 18.4293 24.187L9.12508 25.2894C8.27746 25.3898 7.93718 26.4376 8.56405 27.0169L15.4419 33.3726C15.6975 33.6088 15.8119 33.9608 15.744 34.3021L13.9181 43.4845C13.7517 44.3214 14.6424 44.9688 15.3871 44.5523L23.5642 39.9784C23.8676 39.8088 24.2372 39.8088 24.5406 39.9784L32.7177 44.5523C33.4624 44.9688 34.3531 44.3214 34.1867 43.4845L32.3608 34.3021C32.2929 33.9608 32.4074 33.6088 32.6629 33.3726L39.5408 27.0169C40.1676 26.4376 39.8274 25.3898 38.9797 25.2894L29.6755 24.187C29.3302 24.1461 29.0309 23.9288 28.8852 23.6131L24.9604 15.1102Z" fill="#FF7B01"/>
</svg>
