<svg width="48" height="62" viewBox="0 0 48 62" fill="none" xmlns="http://www.w3.org/2000/svg">
<path fill-rule="evenodd" clip-rule="evenodd" d="M6.93217 3H41.0679C43.2415 3 45 4.77454 45 6.88889V55.1111C45 57.2255 43.2415 59 41.0679 59H6.93217C4.75859 59 3 57.2255 3 55.1111V6.88889C3 4.77454 4.75859 3 6.93217 3ZM41.0679 0H6.93217C3.11948 0 0 3.1 0 6.88889V55.1111C0 58.9 3.11948 62 6.93217 62H41.0679C44.8806 62 48 58.9 48 55.1111V6.88889C48 3.1 44.8806 0 41.0679 0ZM24.7055 15.1102C24.348 14.3357 23.2471 14.3357 22.8896 15.1102L18.9647 23.6131C18.819 23.9288 18.5197 24.1461 18.1744 24.187L8.87019 25.2894C8.02258 25.3898 7.6823 26.4376 8.30917 27.0169L15.187 33.3726C15.4426 33.6088 15.557 33.9608 15.4892 34.3021L13.6633 43.4845C13.4969 44.3214 14.3876 44.9688 15.1322 44.5523L23.3094 39.9784C23.6127 39.8088 23.9824 39.8088 24.2857 39.9784L32.4628 44.5523C33.2075 44.9688 34.0982 44.3214 33.9318 43.4845L32.1059 34.3021C32.0381 33.9608 32.1525 33.6088 32.408 33.3726L39.2859 27.0169C39.9128 26.4376 39.5725 25.3898 38.7249 25.2894L29.4206 24.187C29.0753 24.1461 28.7761 23.9288 28.6304 23.6131L24.7055 15.1102Z" fill="#FF7B01"/>
</svg>
