<svg width="54" height="74" viewBox="0 0 54 74" fill="none" xmlns="http://www.w3.org/2000/svg">
<path id="Vector" d="M36.8173 9.25C36.8173 6.79675 35.7833 4.44397 33.9428 2.70926C32.1023 0.974551 29.606 0 27.0032 0C24.4003 0 21.904 0.974551 20.0635 2.70926C18.223 4.44397 17.189 6.79675 17.189 9.25C17.189 11.7033 18.223 14.056 20.0635 15.7907C21.904 17.5254 24.4003 18.5 27.0032 18.5C29.606 18.5 32.1023 17.5254 33.9428 15.7907C35.7833 14.056 36.8173 11.7033 36.8173 9.25ZM21.0073 24.4691C17.373 23.2551 14.1835 20.957 11.9906 17.8496L9.00037 13.6148C7.49759 11.4902 4.46134 10.9266 2.19183 12.343C-0.0776908 13.7594 -0.675739 16.6355 0.827048 18.7602L3.83262 22.9805C6.60818 26.8973 10.3958 29.9758 14.7355 31.9992V69.375C14.7355 71.9332 16.9283 74 19.6426 74C22.3568 74 24.5496 71.9332 24.5496 69.375V55.5H29.4567V69.375C29.4567 71.9332 31.6495 74 34.3637 74C37.078 74 39.2708 71.9332 39.2708 69.375V32.0281C43.7332 29.9758 47.6128 26.7961 50.419 22.7492L53.2099 18.7168C54.682 16.5777 54.038 13.716 51.7685 12.3141C49.499 10.9121 46.4627 11.5191 44.9753 13.6727L42.1844 17.6906C38.8414 22.518 33.1523 25.4375 27.0338 25.4375C25.1017 25.4375 23.2155 25.1484 21.4214 24.5992C21.2834 24.5559 21.1453 24.498 21.0073 24.4691Z" fill="#00B543"/>
</svg>
