<svg className='choice_btn_mark' width="20" height="20" viewBox="0 0 20 20" fill="none" xmlns="http://www.w3.org/2000/svg">
<g id="Group 26">
<path id="Vector" d="M16.667 3.33329V13.3333H6.66699V3.33329H16.667ZM16.667 1.66663H6.66699C5.75033 1.66663 5.00033 2.41663 5.00033 3.33329V13.3333C5.00033 14.25 5.75033 15 6.66699 15H16.667C17.5837 15 18.3337 14.25 18.3337 13.3333V3.33329C18.3337 2.41663 17.5837 1.66663 16.667 1.66663ZM10.392 11.6666L7.50033 8.74996L8.66699 7.57496L10.392 9.30829L14.667 4.99996L15.8337 6.17496L10.392 11.6666ZM3.33366 4.99996H1.66699V16.6666C1.66699 17.5833 2.41699 18.3333 3.33366 18.3333H15.0003V16.6666H3.33366V4.99996Z" fill="black"/>
</g>
</svg>
