<svg width="16" height="19" viewBox="0 0 16 19" fill="none" xmlns="http://www.w3.org/2000/svg">
<path id="icon_del" d="M4.82857 0.656836C5.02143 0.252344 5.41786 0 5.85 0H10.15C10.5821 0 10.9786 0.252344 11.1714 0.656836L11.4286 1.1875H14.8571C15.4893 1.1875 16 1.71816 16 2.375C16 3.03184 15.4893 3.5625 14.8571 3.5625H1.14286C0.510714 3.5625 0 3.03184 0 2.375C0 1.71816 0.510714 1.1875 1.14286 1.1875H4.57143L4.82857 0.656836ZM1.14286 4.75H14.8571V16.625C14.8571 17.935 13.8321 19 12.5714 19H3.42857C2.16786 19 1.14286 17.935 1.14286 16.625V4.75ZM4.57143 7.125C4.25714 7.125 4 7.39219 4 7.71875V16.0312C4 16.3578 4.25714 16.625 4.57143 16.625C4.88571 16.625 5.14286 16.3578 5.14286 16.0312V7.71875C5.14286 7.39219 4.88571 7.125 4.57143 7.125ZM8 7.125C7.68571 7.125 7.42857 7.39219 7.42857 7.71875V16.0312C7.42857 16.3578 7.68571 16.625 8 16.625C8.31429 16.625 8.57143 16.3578 8.57143 16.0312V7.71875C8.57143 7.39219 8.31429 7.125 8 7.125ZM11.4286 7.125C11.1143 7.125 10.8571 7.39219 10.8571 7.71875V16.0312C10.8571 16.3578 11.1143 16.625 11.4286 16.625C11.7429 16.625 12 16.3578 12 16.0312V7.71875C12 7.39219 11.7429 7.125 11.4286 7.125Z" fill="white"/>
</svg>
