<svg width="24" height="24" viewBox="0 0 24 24" fill="none" xmlns="http://www.w3.org/2000/svg">
<path id="Vector" d="M13.8462 1.84615C13.8462 0.825 13.0212 0 12 0C10.9788 0 10.1538 0.825 10.1538 1.84615V10.1538H1.84615C0.825 10.1538 0 10.9788 0 12C0 13.0212 0.825 13.8462 1.84615 13.8462H10.1538V22.1538C10.1538 23.175 10.9788 24 12 24C13.0212 24 13.8462 23.175 13.8462 22.1538V13.8462H22.1538C23.175 13.8462 24 13.0212 24 12C24 10.9788 23.175 10.1538 22.1538 10.1538H13.8462V1.84615Z" fill="#3280FF"/>
</svg>
