<svg xmlns="http://www.w3.org/2000/svg" width="36" height="36" viewBox="0 0 36 36" fill="none">
  <circle cx="18" cy="18" r="17" fill="#F5F5F5" stroke="#DADADA" stroke-width="2"/>
  <path d="M25.6657 13.8776C25.4817 13.1385 24.9395 12.5565 24.2511 12.3589C23.0033 12 18 12 18 12C18 12 12.9967 12 11.7489 12.3589C11.0605 12.5565 10.5183 13.1385 10.3343 13.8776C10 15.2172 10 18.0121 10 18.0121C10 18.0121 10 20.8071 10.3343 22.1467C10.5183 22.8857 11.0605 23.4435 11.7489 23.6411C12.9967 24 18 24 18 24C18 24 23.0033 24 24.2511 23.6411C24.9395 23.4435 25.4817 22.8857 25.6657 22.1467C26 20.8071 26 18.0121 26 18.0121C26 18.0121 26 15.2172 25.6657 13.8776ZM16.3636 20.5497V15.4745L20.5454 18.0122L16.3636 20.5497Z" fill="#9E9E9E"/>
</svg>