<svg xmlns="http://www.w3.org/2000/svg" width="36" height="36" viewBox="0 0 36 36" fill="none">
  <circle cx="18" cy="18" r="17" fill="#F5F5F5" stroke="#DADADA" stroke-width="2"/>
  <path d="M18.0019 12.7258C15.0831 12.7258 12.7288 15.0806 12.7288 18.0001C12.7288 20.9195 15.0831 23.2743 18.0019 23.2743C20.9207 23.2743 23.275 20.9195 23.275 18.0001C23.275 15.0806 20.9207 12.7258 18.0019 12.7258ZM18.0019 21.429C16.1157 21.429 14.5737 19.8913 14.5737 18.0001C14.5737 16.1089 16.1111 14.5711 18.0019 14.5711C19.8927 14.5711 21.4301 16.1089 21.4301 18.0001C21.4301 19.8913 19.8881 21.429 18.0019 21.429ZM24.7206 12.5101C24.7206 13.194 24.1699 13.7403 23.4907 13.7403C22.8068 13.7403 22.2607 13.1894 22.2607 12.5101C22.2607 11.8307 22.8114 11.2799 23.4907 11.2799C24.1699 11.2799 24.7206 11.8307 24.7206 12.5101ZM28.213 13.7586C28.135 12.1107 27.7587 10.651 26.5517 9.44834C25.3493 8.24568 23.8899 7.86928 22.2424 7.78665C20.5443 7.69026 15.4548 7.69026 13.7568 7.78665C12.1138 7.86469 10.6544 8.24109 9.44747 9.44375C8.24049 10.6464 7.86876 12.1061 7.78615 13.754C7.68977 15.4525 7.68977 20.5431 7.78615 22.2415C7.86417 23.8894 8.24049 25.3491 9.44747 26.5518C10.6544 27.7545 12.1092 28.1309 13.7568 28.2135C15.4548 28.3099 20.5443 28.3099 22.2424 28.2135C23.8899 28.1355 25.3493 27.759 26.5517 26.5518C27.7541 25.3491 28.1304 23.8894 28.213 22.2415C28.3094 20.5431 28.3094 15.457 28.213 13.7586ZM26.0193 24.0639C25.6614 24.9636 24.9684 25.6567 24.0643 26.0193C22.7105 26.5564 19.498 26.4324 18.0019 26.4324C16.5058 26.4324 13.2887 26.5518 11.9394 26.0193C11.0399 25.6613 10.347 24.9681 9.98441 24.0639C9.44747 22.7097 9.57138 19.4965 9.57138 18.0001C9.57138 16.5036 9.45206 13.2858 9.98441 11.9363C10.3424 11.0366 11.0354 10.3434 11.9394 9.98082C13.2933 9.44375 16.5058 9.56769 18.0019 9.56769C19.498 9.56769 22.7151 9.44834 24.0643 9.98082C24.9638 10.3389 25.6568 11.032 26.0193 11.9363C26.5563 13.2904 26.4324 16.5036 26.4324 18.0001C26.4324 19.4965 26.5563 22.7143 26.0193 24.0639Z" fill="#9E9E9E"/>
</svg>