<svg width="78" height="78" viewBox="0 0 78 78" fill="none" xmlns="http://www.w3.org/2000/svg">
<g id="go_top" filter="url(#filter0_d_2497_750)">
<rect width="58" height="58" rx="24" fill="black" shape-rendering="auto"/>
<path id="Vector" d="M31.7192 19.1328C30.2649 17.666 27.9268 17.6237 26.4215 19.0059C26.3714 19.0406 26.3243 19.08 26.2808 19.1239L12.1196 33.4064C10.6268 34.912 10.6268 37.3526 12.1196 38.8583C13.6171 40.3686 16.0514 40.3687 17.549 38.8585C17.5491 38.8585 17.5492 38.8584 17.5492 38.8583L28.9997 27.318L40.4508 38.8672C41.9483 40.3776 44.3828 40.3776 45.8804 38.8672C47.3732 37.3616 47.3732 34.921 45.8804 33.4153L31.7192 19.1328Z" fill="white" stroke="white" stroke-width="2" stroke-linejoin="round"/>
</g>
<defs>
<filter id="filter0_d_2497_750" x="0" y="0" width="78" height="78" filterUnits="userSpaceOnUse" color-interpolation-filters="sRGB">
<feFlood flood-opacity="0" result="BackgroundImageFix"/>
<feColorMatrix in="SourceAlpha" type="matrix" values="0 0 0 0 0 0 0 0 0 0 0 0 0 0 0 0 0 0 127 0" result="hardAlpha"/>
<feOffset dx="10" dy="10"/>
<feGaussianBlur stdDeviation="5"/>
<feComposite in2="hardAlpha" operator="out"/>
<feColorMatrix type="matrix" values="0 0 0 0 0 0 0 0 0 0 0 0 0 0 0 0 0 0 0.2 0"/>
<feBlend mode="normal" in2="BackgroundImageFix" result="effect1_dropShadow_2497_750"/>
<feBlend mode="normal" in="SourceGraphic" in2="effect1_dropShadow_2497_750" result="shape"/>
</filter>
</defs>
</svg>
