<svg width="38" height="34" viewBox="0 0 38 34" fill="none" xmlns="http://www.w3.org/2000/svg">
<g id="Group 6">
<path id="Vector" d="M0 4.85714C0 2.17813 2.13008 0 4.75 0H33.25C35.8699 0 38 2.17813 38 4.85714V29.1429C38 31.8219 35.8699 34 33.25 34H4.75C2.13008 34 0 31.8219 0 29.1429V4.85714ZM24.032 12.9397C23.698 12.4388 23.1488 12.1429 22.5625 12.1429C21.9762 12.1429 21.4195 12.4388 21.093 12.9397L14.6359 22.6237L12.6691 20.1116C12.3277 19.679 11.8156 19.4286 11.2812 19.4286C10.7469 19.4286 10.2273 19.679 9.89336 20.1116L5.14336 26.183C4.71289 26.7295 4.63125 27.4808 4.92812 28.1107C5.225 28.7406 5.84844 29.1429 6.53125 29.1429H13.6562H16.0312H31.4688C32.1293 29.1429 32.7379 28.771 33.0422 28.1714C33.3465 27.5719 33.3094 26.8509 32.9383 26.2969L24.032 12.9397ZM8.3125 12.1429C9.25733 12.1429 10.1635 11.7591 10.8316 11.0759C11.4997 10.3927 11.875 9.46615 11.875 8.5C11.875 7.53385 11.4997 6.60728 10.8316 5.92411C10.1635 5.24094 9.25733 4.85714 8.3125 4.85714C7.36767 4.85714 6.46153 5.24094 5.79343 5.92411C5.12533 6.60728 4.75 7.53385 4.75 8.5C4.75 9.46615 5.12533 10.3927 5.79343 11.0759C6.46153 11.7591 7.36767 12.1429 8.3125 12.1429Z" fill="#D9D9D9"/>
</g>
</svg>
