<svg width="56" height="50" viewBox="0 0 56 50" fill="none" xmlns="http://www.w3.org/2000/svg">
<g id="icon_img">
<path id="Vector" d="M0 7.08421C0 3.19083 3.13906 0.0253906 7 0.0253906H49C52.8609 0.0253906 56 3.19083 56 7.08421V42.3783C56 46.2717 52.8609 49.4372 49 49.4372H7C3.13906 49.4372 0 46.2717 0 42.3783V7.08421ZM35.4156 18.8305C34.9234 18.1026 34.1141 17.6724 33.25 17.6724C32.3859 17.6724 31.5656 18.1026 31.0844 18.8305L21.5688 32.9041L18.6703 29.2533C18.1672 28.6247 17.4125 28.2607 16.625 28.2607C15.8375 28.2607 15.0719 28.6247 14.5797 29.2533L7.57969 38.0769C6.94531 38.871 6.825 39.9629 7.2625 40.8783C7.7 41.7938 8.61875 42.3783 9.625 42.3783H20.125H23.625H46.375C47.3484 42.3783 48.2453 41.8379 48.6938 40.9666C49.1422 40.0952 49.0875 39.0475 48.5406 38.2423L35.4156 18.8305ZM12.25 17.6724C13.6424 17.6724 14.9777 17.1147 15.9623 16.1218C16.9469 15.129 17.5 13.7824 17.5 12.3783C17.5 10.9742 16.9469 9.62767 15.9623 8.63483C14.9777 7.64199 13.6424 7.08421 12.25 7.08421C10.8576 7.08421 9.52226 7.64199 8.53769 8.63483C7.55312 9.62767 7 10.9742 7 12.3783C7 13.7824 7.55312 15.129 8.53769 16.1218C9.52226 17.1147 10.8576 17.6724 12.25 17.6724Z" fill="#D9D9D9"/>
</g>
</svg>
