<svg width="15" height="16" viewBox="0 0 15 16" fill="none" xmlns="http://www.w3.org/2000/svg">
<path id="icon_google_play" fill-rule="evenodd" clip-rule="evenodd" d="M1.36857 0.126414C1.23789 0.0538834 1.10227 -0.00173836 0.909626 4.15453e-05C0.926419 0.0204208 0.939356 0.0367168 0.950134 0.0502898C0.967587 0.0722758 0.979377 0.0871254 0.992705 0.100606C1.68434 0.798171 2.37611 1.49565 3.06788 2.19313C4.94435 4.08507 6.82087 5.97706 8.695 7.87116C8.79828 7.97577 8.8459 7.93173 8.9227 7.8547L8.99666 7.78141C9.68734 7.09702 10.3778 6.41277 11.0746 5.73398C11.1891 5.62229 11.1918 5.57646 11.0436 5.49414C8.49955 4.0858 5.95713 2.67414 3.41465 1.26242L1.36857 0.126414ZM0.00446561 6.86195L0.00444085 8.02842H0.000398991L0.000199521 9.00527C1.65459e-08 9.65655 -0.000199521 10.3079 0.000398991 10.959C0.000698247 11.4196 0.00114754 11.8801 0.0015968 12.3407C0.00249457 13.2618 0.00339307 14.1829 0.00309382 15.104C0.00309382 15.4319 0.106827 15.7073 0.375818 15.9125C0.523106 16.0251 0.631333 16.0411 0.784906 15.8889C3.30145 13.3922 5.82382 10.9021 8.34842 8.41471C8.45439 8.3101 8.44592 8.2576 8.34572 8.15749C7.4664 7.27973 6.5907 6.39811 5.71495 5.51646L5.25755 5.05602L4.78114 4.57635C3.35247 3.13793 1.9238 1.69952 0.498408 0.25786C0.400516 0.159076 0.343482 0.181769 0.263549 0.265869C0.0592264 0.482127 0.00264456 0.743327 0.00309382 1.02989C0.0045901 2.97405 0.00452787 4.9179 0.00446561 6.86195ZM1.63187 15.83L2.86036 14.5998C4.79154 12.6661 6.72271 10.7324 8.64887 8.79368C8.79393 8.64816 8.86173 8.66774 8.99156 8.80168C9.58429 9.4135 10.1865 10.0173 10.7909 10.6181C10.8973 10.724 10.9059 10.7671 10.7617 10.8454C8.37377 12.1407 5.98717 13.4391 3.60066 14.7374L1.75312 15.7424C1.72123 15.7598 1.69101 15.784 1.66666 15.8036C1.65294 15.8146 1.64109 15.8241 1.63187 15.83ZM14.6754 8.67947C14.8648 8.54103 14.9902 8.35642 15 8.09341C14.9884 7.76678 14.7715 7.56702 14.4935 7.41217C14.2594 7.28233 14.0253 7.15265 13.7911 7.02295C13.1249 6.65394 12.4585 6.28488 11.7947 5.91216C11.6837 5.84987 11.6204 5.85965 11.531 5.9482C10.7761 6.70021 10.0173 7.44911 9.25474 8.19353C9.15731 8.28876 9.15956 8.3408 9.25519 8.43559C9.9095 9.08664 10.5606 9.74203 11.2059 10.4024C11.3069 10.5061 11.3797 10.5092 11.5023 10.4415C12.0773 10.1236 12.6545 9.80886 13.2315 9.49419C13.5636 9.313 13.8958 9.13174 14.2276 8.95003L14.2403 8.94302C14.3893 8.86127 14.5391 8.77898 14.6754 8.67947Z" fill="white"/>
</svg>
