<svg width="41" height="41" viewBox="0 0 43 43" fill="none" xmlns="http://www.w3.org/2000/svg">
<g id="icon_play_stop">
<circle id="Ellipse 17" cx="21" cy="21" r="20" fill="black" stroke="black" stroke-width="2"/>
<g id="parars">
<path d="M23.5 14C24.3281 14 25 14.6719 25 15.5L25 26.5C25 27.3281 24.3281 28 23.5 28C22.6719 28 22 27.3281 22 26.5L22 15.5C22 14.6719 22.6719 14 23.5 14Z" fill="white"/>
<path d="M18.5 14C19.3281 14 20 14.6719 20 15.5L20 26.5C20 27.3281 19.3281 28 18.5 28C17.6719 28 17 27.3281 17 26.5L17 15.5C17 14.6719 17.6719 14 18.5 14Z" fill="white"/>
</g>
</g>
</svg>
