<svg width="66" height="58" viewBox="0 0 66 58" fill="none" xmlns="http://www.w3.org/2000/svg">
<path id="icon_warning" d="M33.0001 0C34.8306 0 36.5193 0.970982 37.4474 2.56339L65.2911 50.2062C66.2322 51.8116 66.2322 53.7924 65.3169 55.3978C64.4017 57.0031 62.6872 58 60.8439 58H5.15637C3.31302 58 1.59856 57.0031 0.683328 55.3978C-0.231906 53.7924 -0.219016 51.7987 0.709109 50.2062L28.5529 2.56339C29.481 0.970982 31.1697 0 33.0001 0ZM33.0001 16.5714C31.2857 16.5714 29.9064 17.9567 29.9064 19.6786V34.1786C29.9064 35.9004 31.2857 37.2857 33.0001 37.2857C34.7146 37.2857 36.0939 35.9004 36.0939 34.1786V19.6786C36.0939 17.9567 34.7146 16.5714 33.0001 16.5714ZM37.1251 45.5714C37.1251 44.4727 36.6905 43.4189 35.9169 42.642C35.1434 41.8651 34.0941 41.4286 33.0001 41.4286C31.9061 41.4286 30.8569 41.8651 30.0833 42.642C29.3097 43.4189 28.8751 44.4727 28.8751 45.5714C28.8751 46.6702 29.3097 47.7239 30.0833 48.5009C30.8569 49.2778 31.9061 49.7143 33.0001 49.7143C34.0941 49.7143 35.1434 49.2778 35.9169 48.5009C36.6905 47.7239 37.1251 46.6702 37.1251 45.5714Z" fill="#FF1F00"/>
</svg>
