<svg width="14" height="16" viewBox="0 0 14 16" fill="none" xmlns="http://www.w3.org/2000/svg">
<g id="icon_app_store">
<path id="Vector" fill-rule="evenodd" clip-rule="evenodd" d="M11.6929 8.46023C11.7104 7.20578 12.4134 6.04669 13.5555 5.39034C12.8313 4.42252 11.6626 3.83159 10.4012 3.79461C9.07438 3.66377 7.78792 4.53701 7.11158 4.53701C6.42237 4.53701 5.38133 3.80741 4.26049 3.82874C2.78554 3.87354 1.44357 4.63941 0.72548 5.84616C-0.802661 8.32221 0.337934 11.961 1.80148 13.9628C2.53401 14.9426 3.38965 16.0378 4.50973 15.9987C5.60625 15.9567 6.01507 15.3445 7.3388 15.3445C8.64962 15.3445 9.03336 15.9987 10.1762 15.9745C11.3525 15.9567 12.0934 14.9896 12.8001 14.0005C13.326 13.3022 13.731 12.5299 14 11.7135C12.6033 11.1603 11.6945 9.88025 11.6929 8.46023Z" fill="white"/>
<path id="Vector_2" fill-rule="evenodd" clip-rule="evenodd" d="M9.69103 2.59556C10.3091 1.87123 10.6136 0.940265 10.5397 0C9.59583 0.0965289 8.7237 0.537702 8.09685 1.23414C7.47882 1.92128 7.16543 2.82008 7.22619 3.73317C8.18253 3.74247 9.09127 3.32346 9.69103 2.59556Z" fill="white"/>
</g>
</svg>
