<svg width="20" height="20" viewBox="0 0 20 20" fill="none" xmlns="http://www.w3.org/2000/svg">
<g id="icon_settings">
<path id="Vector" d="M17.6462 10.9789C17.689 10.6664 17.7104 10.3435 17.7104 9.99976C17.7104 9.66642 17.689 9.33309 17.6355 9.02059L19.8094 7.37475C20.0021 7.22892 20.0557 6.94767 19.9379 6.73934L17.8818 3.28101C17.7533 3.05184 17.4855 2.97892 17.2499 3.05184L14.6905 4.05184C14.1551 3.65601 13.5875 3.32267 12.9557 3.07267L12.5701 0.426839C12.5273 0.176839 12.3131 -0.000244141 12.0561 -0.000244141H7.94388C7.68687 -0.000244141 7.4834 0.176839 7.44056 0.426839L7.05504 3.07267C6.42322 3.32267 5.84493 3.66642 5.3202 4.05184L2.76076 3.05184C2.52517 2.96851 2.25744 3.05184 2.12894 3.28101L0.08353 6.73934C-0.0449771 6.95809 -0.00214153 7.22892 0.212037 7.37475L2.38595 9.02059C2.33241 9.33309 2.28957 9.67684 2.28957 9.99976C2.28957 10.3227 2.31099 10.6664 2.36453 10.9789L0.190619 12.6248C-0.00214152 12.7706 -0.055686 13.0518 0.0621122 13.2602L2.11823 16.7185C2.24673 16.9477 2.51446 17.0206 2.75005 16.9477L5.30949 15.9477C5.84493 16.3435 6.41251 16.6768 7.04433 16.9268L7.42986 19.5727C7.4834 19.8227 7.68687 19.9998 7.94388 19.9998H12.0561C12.3131 19.9998 12.5273 19.8227 12.5594 19.5727L12.945 16.9268C13.5768 16.6768 14.1551 16.3435 14.6798 15.9477L17.2392 16.9477C17.4748 17.031 17.7426 16.9477 17.8711 16.7185L19.9272 13.2602C20.0557 13.031 20.0021 12.7706 19.7987 12.6248L17.6462 10.9789ZM10 13.7498C7.87963 13.7498 6.14478 12.0623 6.14478 9.99976C6.14478 7.93726 7.87963 6.24975 10 6.24975C12.1204 6.24975 13.8552 7.93726 13.8552 9.99976C13.8552 12.0623 12.1204 13.7498 10 13.7498Z" fill="#333333"/>
</g>
</svg>
