<svg xmlns="http://www.w3.org/2000/svg" width="68" height="34" viewBox="0 0 68 34" fill="none">
  <path d="M51.7608 14.7045L50.4134 17.4307C49.2158 19.8564 46.259 20.8635 43.7994 19.6824L21.2787 8.87762C18.8192 7.68589 16.0121 7.62261 13.4724 8.72998C9.07193 10.6494 6.92786 15.738 8.61211 20.1833C9.14679 21.586 10.0023 22.8146 11.1465 23.8112C13.4296 25.7887 16.6109 26.5375 19.5463 25.7676C22.209 25.0663 24.3478 23.2997 25.508 20.8794L32.7797 24.27C30.6944 28.6151 26.9303 31.837 22.2358 33.2608C16.1939 35.0906 9.53176 33.4612 5.05648 29.0633C3.32946 27.3706 2.0088 25.3668 1.13727 23.1363C-2.31142 14.2984 2.36169 4.2056 11.3924 1.01005C15.8303 -0.561351 20.6103 -0.29242 24.8397 1.76939V1.77994L51.7608 14.6992V14.7045Z" fill="url(#paint0_linear_149_1601)"/>
  <path d="M45.4565 7.65938C46.5526 8.12342 47.761 8.24998 48.9373 8.0496C52.0598 7.52755 55.2465 8.62438 57.3799 11.05C58.1926 11.9728 58.8022 13.0433 59.1871 14.2298C60.588 18.5221 58.4867 23.2943 54.3376 25.1927C51.7551 26.3739 48.8838 26.3317 46.3708 25.1083L19.4015 12.1732L17.8723 15.2791C16.7816 17.4938 17.7119 20.1621 19.9629 21.2431L42.8205 32.2113V32.2218C47.0873 34.2994 51.9101 34.5578 56.3854 32.9337C64.9777 29.8225 69.6455 20.4099 66.8491 11.8146C66.1273 9.59991 64.9831 7.59083 63.4539 5.85069C58.7647 0.524783 51.5358 -1.26282 44.7935 1.11538C44.7935 1.11538 41.7031 2.25966 39.4521 4.69586L45.4565 7.66466V7.65938Z" fill="#3180FF"/>
  <defs>
    <linearGradient id="paint0_linear_149_1601" x1="0.00374566" y1="16.9983" x2="51.7608" y2="16.9983" gradientUnits="userSpaceOnUse">
      <stop stop-color="#B95CFF"/>
      <stop offset="1" stop-color="#0089FF"/>
    </linearGradient>
  </defs>
</svg>