<svg xmlns="http://www.w3.org/2000/svg" width="230" height="30" viewBox="0 0 230 30" fill="none">
  <path d="M45.7884 12.9745L44.5965 15.38C43.537 17.5203 40.9214 18.409 38.7457 17.3668L18.8235 7.8332C16.6477 6.78167 14.1645 6.72583 11.9179 7.70292C8.02517 9.39654 6.12849 13.8865 7.6184 17.8088C8.09139 19.0464 8.84817 20.1305 9.86036 21.0099C11.88 22.7547 14.6943 23.4154 17.291 22.7361C19.6465 22.1173 21.5384 20.5586 22.5648 18.423L28.9974 21.4147C27.1528 25.2486 23.8229 28.0915 19.6701 29.3477C14.3254 30.9623 8.43194 29.5245 4.47304 25.6441C2.94529 24.1506 1.77701 22.3825 1.00605 20.4144C-2.04472 12.6163 2.08919 3.71082 10.0779 0.891224C14.0037 -0.49531 18.2322 -0.258017 21.9735 1.56123V1.57053L45.7884 12.9699V12.9745Z" fill="url(#paint0_linear_26_39)"/>
  <path d="M40.2118 6.75839C41.1814 7.16784 42.2504 7.27951 43.2909 7.1027C46.0532 6.64207 48.8722 7.60986 50.7594 9.75014C51.4783 10.5644 52.0175 11.5089 52.3581 12.5558C53.5973 16.3432 51.7385 20.5539 48.0681 22.2289C45.7836 23.2712 43.2436 23.234 41.0206 22.1545L17.1632 10.7412L15.8104 13.4817C14.8455 15.4359 15.6685 17.7902 17.6598 18.744L37.88 28.4218V28.4311C41.6544 30.2643 45.9207 30.4923 49.8796 29.0593C57.4805 26.3141 61.6097 18.0089 59.136 10.4248C58.4975 8.47062 57.4853 6.69791 56.1325 5.16248C51.9844 0.463158 45.5897 -1.11414 39.6253 0.984271C39.6253 0.984271 36.8914 1.99393 34.9002 4.14352L40.2118 6.76305V6.75839Z" fill="#3180FF"/>
  <path d="M70.1898 25.0486C69.083 25.0486 68.3499 24.3227 68.3499 23.2386V11.7229C68.3499 10.6342 69.0877 9.91301 70.1898 9.91301H75.6764C78.5853 9.91301 80.5529 11.6159 80.5529 14.2959C80.5529 15.6546 79.7441 16.8131 78.7698 17.3017C80.2076 17.7716 80.9408 19.2046 80.9408 20.5772C80.9408 23.2386 79.2096 25.0486 76.1021 25.0486H70.1945H70.1898ZM71.6276 16.1059H75.5487C76.6555 16.1059 77.2798 15.3475 77.2798 14.4216C77.2798 13.4957 76.6555 12.7373 75.5487 12.7373H71.6276V16.1059ZM75.9318 18.7859H71.6276V22.2243H75.9318C77.0197 22.2243 77.7008 21.4799 77.7008 20.5214C77.7008 19.5629 77.0197 18.7812 75.9318 18.7812V18.7859Z" fill="black"/>
  <path d="M86.4275 16.0268H92.8885C93.6783 16.0268 94.2128 16.7154 94.2128 17.4598C94.2128 18.2043 93.6783 18.8882 92.8885 18.8882H86.4275V22.1499H93.5317C94.3216 22.1499 94.8561 22.8571 94.8561 23.5969C94.8561 24.3367 94.3216 25.0439 93.5317 25.0439H84.9896C83.8828 25.0439 83.1497 24.3181 83.1497 23.234V11.7183C83.1497 10.6295 83.8875 9.90834 84.9896 9.90834H93.125C93.9148 9.90834 94.4493 10.6156 94.4493 11.3554C94.4493 12.0952 93.9148 12.8024 93.125 12.8024H86.4275V16.0268Z" fill="black"/>
  <path d="M106.132 22.1685H100.04L99.2313 24.2157C98.8813 25.0858 97.9448 25.4813 97.0035 25.1556C96.1379 24.8671 95.6981 23.9598 96.0102 23.2526L101.312 10.8296C101.625 10.0852 102.287 9.67107 103.081 9.67107C103.947 9.67107 104.571 10.0898 104.883 10.8296L110.148 23.2526C110.441 23.9784 110.02 24.8438 109.173 25.1556C108.251 25.4813 107.315 25.0672 106.965 24.2157L106.137 22.1685H106.132ZM101.18 19.3442H104.973L103.077 14.6356L101.18 19.3442Z" fill="black"/>
  <path d="M116.609 20.3585L120.454 10.7784C120.804 9.90836 121.741 9.51287 122.682 9.83857C123.548 10.127 123.988 11.0343 123.675 11.7416L118.373 24.1599C118.061 24.9043 117.399 25.3184 116.604 25.3184C115.739 25.3184 115.114 24.8997 114.802 24.1599L109.538 11.7416C109.245 11.0157 109.666 10.1503 110.512 9.83857C111.434 9.51287 112.371 9.92697 112.721 10.7784L116.604 20.3585H116.609Z" fill="black"/>
  <path d="M128.452 16.0268H134.913C135.703 16.0268 136.238 16.7154 136.238 17.4598C136.238 18.2043 135.703 18.8882 134.913 18.8882H128.452V22.1499H135.557C136.346 22.1499 136.881 22.8571 136.881 23.5969C136.881 24.3367 136.346 25.0439 135.557 25.0439H127.014C125.908 25.0439 125.175 24.3181 125.175 23.234V11.7183C125.175 10.6295 125.912 9.90834 127.014 9.90834H135.15C135.94 9.90834 136.474 10.6156 136.474 11.3554C136.474 12.0952 135.94 12.8024 135.15 12.8024H128.452V16.0268Z" fill="black"/>
  <path d="M142.117 23.7411C142.117 24.681 141.398 25.2812 140.481 25.2812C139.563 25.2812 138.844 24.6856 138.844 23.7411V11.7183C138.844 10.6295 139.582 9.90834 140.684 9.90834H145.873C149.552 9.90834 151.061 12.244 151.061 14.7798C151.061 16.5339 150.323 18.1996 148.649 19.0511L151.004 22.9455C151.444 23.6713 151.279 24.574 150.489 25.0485C149.718 25.4999 148.833 25.3184 148.356 24.5042L145.428 19.6513H142.112V23.7411H142.117ZM142.117 16.7898H145.598C147.254 16.7898 147.788 15.8639 147.788 14.7798C147.788 13.6957 147.254 12.7698 145.598 12.7698H142.117V16.7898Z" fill="black"/>
  <path d="M161.963 25.0485C160.857 25.0485 160.124 24.3227 160.124 23.2386V11.7229C160.124 10.6342 160.861 9.91299 161.963 9.91299H167.45C170.359 9.91299 172.327 11.6159 172.327 14.2959C172.327 15.6545 171.518 16.8131 170.543 17.3016C171.981 17.7716 172.714 19.2046 172.714 20.5772C172.714 23.2386 170.983 25.0485 167.876 25.0485H161.968H161.963ZM163.401 16.1059H167.322C168.429 16.1059 169.054 15.3475 169.054 14.4216C169.054 13.4956 168.429 12.7372 167.322 12.7372H163.401V16.1059ZM167.706 18.7859H163.401V22.2243H167.706C168.793 22.2243 169.474 21.4798 169.474 20.5214C169.474 19.5629 168.793 18.7812 167.706 18.7812V18.7859Z" fill="black"/>
  <path d="M176.768 25.0485C175.661 25.0485 174.928 24.3227 174.928 23.2386V11.2158C174.928 10.2759 175.666 9.6757 176.583 9.6757C177.501 9.6757 178.239 10.2713 178.239 11.2158V22.1499H184.203C184.993 22.1499 185.528 22.8571 185.528 23.5969C185.528 24.3367 184.993 25.0439 184.203 25.0439H176.768V25.0485Z" fill="black"/>
  <path d="M200.37 17.4598C200.37 22.7082 196.799 25.4068 192.935 25.4068C189.07 25.4068 185.443 22.7082 185.443 17.4598C185.443 12.2115 189.033 9.54543 192.935 9.54543C196.837 9.54543 200.37 12.2068 200.37 17.4598ZM188.72 17.4598C188.72 20.6098 190.636 22.5453 192.935 22.5453C195.233 22.5453 197.097 20.6098 197.097 17.4598C197.097 14.3099 195.181 12.4069 192.935 12.4069C190.688 12.4069 188.72 14.3099 188.72 17.4598Z" fill="black"/>
  <path d="M201.595 17.4598C201.595 12.3371 204.982 9.54543 209.144 9.54543C211.556 9.54543 213.912 10.6854 214.981 12.5697C215.349 13.2211 215.222 14.1796 214.522 14.617C213.878 15.0171 212.885 14.9985 212.422 14.2913C211.722 13.2397 210.672 12.4441 209.144 12.4441C206.878 12.4441 204.873 14.1098 204.873 17.4598C204.873 20.8098 206.916 22.5128 209.177 22.5128C210.615 22.5128 211.901 21.7544 212.601 20.6098C212.989 19.977 214.02 19.8839 214.683 20.3027C215.307 20.7028 215.51 21.6055 215.108 22.3499C214.077 24.2529 211.684 25.4115 209.182 25.4115C205.024 25.4115 201.6 22.657 201.6 17.4645L201.595 17.4598Z" fill="black"/>
  <path d="M220.652 16.1384L226.744 10.1456C227.349 9.55008 228.309 9.49424 228.953 10.127C229.596 10.7598 229.615 11.6299 228.934 12.2999L224.942 16.2268L229.69 22.8152C230.187 23.5038 230.097 24.4251 229.34 24.9508C228.603 25.458 227.723 25.351 227.169 24.5693L222.733 18.395L220.652 20.4423V23.7365C220.652 24.6763 219.914 25.2765 218.996 25.2765C218.079 25.2765 217.341 24.681 217.341 23.7365V11.2065C217.341 10.2666 218.079 9.6664 218.996 9.6664C219.914 9.6664 220.652 10.262 220.652 11.2065V16.1291V16.1384Z" fill="black"/>
  <defs>
    <linearGradient id="paint0_linear_26_39" x1="0.00331347" y1="14.9985" x2="45.7884" y2="14.9985" gradientUnits="userSpaceOnUse">
      <stop stop-color="#B95CFF"/>
      <stop offset="1" stop-color="#0089FF"/>
    </linearGradient>
  </defs>
</svg>