<svg xmlns="http://www.w3.org/2000/svg" width="183" height="19" viewBox="0 0 183 19" fill="none">
  <path d="M2.34456 18.3884C1.0934 18.3884 0.264648 17.5658 0.264648 16.3371V3.28601C0.264648 2.05208 1.09875 1.23474 2.34456 1.23474H8.54686C11.8351 1.23474 14.0594 3.16472 14.0594 6.20207C14.0594 7.74183 13.1451 9.05485 12.0437 9.60854C13.6691 10.1411 14.4978 11.7653 14.4978 13.3209C14.4978 16.3371 12.5409 18.3884 9.02806 18.3884H2.3499H2.34456ZM3.96998 8.25333H8.40249C9.65364 8.25333 10.3594 7.39381 10.3594 6.34444C10.3594 5.29508 9.65364 4.43556 8.40249 4.43556H3.96998V8.25333ZM8.83558 11.2907H3.96998V15.1876H8.83558C10.0653 15.1876 10.8353 14.3438 10.8353 13.2576C10.8353 12.1713 10.0653 11.2854 8.83558 11.2854V11.2907Z" fill="black"/>
  <path d="M20.7005 8.16371H28.0042C28.8971 8.16371 29.5013 8.94414 29.5013 9.78785C29.5013 10.6316 28.8971 11.4067 28.0042 11.4067H20.7005V15.1032H28.7314C29.6243 15.1032 30.2285 15.9047 30.2285 16.7432C30.2285 17.5816 29.6243 18.3831 28.7314 18.3831H19.075C17.8239 18.3831 16.9951 17.5605 16.9951 16.3319V3.28076C16.9951 2.04683 17.8292 1.22949 19.075 1.22949H28.2715C29.1645 1.22949 29.7686 2.03101 29.7686 2.86945C29.7686 3.70788 29.1645 4.5094 28.2715 4.5094H20.7005V8.16371Z" fill="black"/>
  <path d="M42.9755 15.1243H36.0888L35.1745 17.4445C34.7788 18.4306 33.7202 18.8788 32.6562 18.5097C31.6777 18.1827 31.1804 17.1545 31.5333 16.353L37.5271 2.27359C37.88 1.42988 38.6285 0.960571 39.5268 0.960571C40.5053 0.960571 41.2111 1.43516 41.5639 2.27359L47.5149 16.353C47.8464 17.1756 47.3706 18.1564 46.4135 18.5097C45.3709 18.8788 44.3122 18.4095 43.9165 17.4445L42.9808 15.1243H42.9755ZM37.3774 11.9235H41.6655L39.5215 6.58704L37.3774 11.9235Z" fill="black"/>
  <path d="M54.8183 13.0729L59.1653 2.21548C59.5609 1.22939 60.6196 0.781174 61.6836 1.1503C62.6621 1.47723 63.1593 2.5055 62.8064 3.30702L56.8127 17.3811C56.4598 18.2248 55.7112 18.6941 54.813 18.6941C53.8345 18.6941 53.1287 18.2195 52.7758 17.3811L46.8248 3.30702C46.4933 2.48441 46.9692 1.5036 47.9263 1.1503C48.9689 0.781174 50.0276 1.25049 50.4232 2.21548L54.813 13.0729H54.8183Z" fill="black"/>
  <path d="M68.2073 8.16371H75.511C76.4039 8.16371 77.0081 8.94414 77.0081 9.78785C77.0081 10.6316 76.4039 11.4067 75.511 11.4067H68.2073V15.1032H76.2382C77.1311 15.1032 77.7353 15.9047 77.7353 16.7432C77.7353 17.5816 77.1311 18.3831 76.2382 18.3831H66.5819C65.3307 18.3831 64.502 17.5605 64.502 16.3319V3.28076C64.502 2.04683 65.336 1.22949 66.5819 1.22949H75.7784C76.6713 1.22949 77.2755 2.03101 77.2755 2.86945C77.2755 3.70788 76.6713 4.5094 75.7784 4.5094H68.2073V8.16371Z" fill="black"/>
  <path d="M83.6531 16.9066C83.6531 17.9718 82.8404 18.6521 81.8031 18.6521C80.7658 18.6521 79.9531 17.9771 79.9531 16.9066V3.28076C79.9531 2.04683 80.7872 1.22949 82.033 1.22949H87.8985C92.0583 1.22949 93.7639 3.87662 93.7639 6.7505C93.7639 8.73849 92.9298 10.6263 91.037 11.5913L93.6998 16.0049C94.197 16.8275 94.0099 17.8505 93.117 18.3884C92.2454 18.8999 91.2456 18.6942 90.7055 17.7714L87.3959 12.2715H83.6478V16.9066H83.6531ZM83.6531 9.02851H87.5884C89.4597 9.02851 90.0639 7.97915 90.0639 6.7505C90.0639 5.52185 89.4597 4.47249 87.5884 4.47249H83.6531V9.02851Z" fill="black"/>
  <path d="M106.089 18.3882C104.838 18.3882 104.009 17.5656 104.009 16.337V3.28588C104.009 2.05196 104.843 1.23462 106.089 1.23462H112.291C115.579 1.23462 117.804 3.1646 117.804 6.20195C117.804 7.74171 116.889 9.05473 115.788 9.60842C117.413 10.141 118.242 11.7651 118.242 13.3207C118.242 16.337 116.285 18.3882 112.772 18.3882H106.094H106.089ZM107.714 8.25321H112.147C113.398 8.25321 114.104 7.39368 114.104 6.34432C114.104 5.29496 113.398 4.43543 112.147 4.43543H107.714V8.25321ZM112.58 11.2906H107.714V15.1874H112.58C113.809 15.1874 114.579 14.3437 114.579 13.2574C114.579 12.1712 113.809 11.2853 112.58 11.2853V11.2906Z" fill="black"/>
  <path d="M122.824 18.3883C121.573 18.3883 120.744 17.5656 120.744 16.337V2.71112C120.744 1.64594 121.578 0.965698 122.616 0.965698C123.653 0.965698 124.487 1.64066 124.487 2.71112V15.1031H131.229C132.122 15.1031 132.726 15.9046 132.726 16.743C132.726 17.5815 132.122 18.383 131.229 18.383H122.824V18.3883Z" fill="black"/>
  <path d="M149.505 9.7879C149.505 15.736 145.469 18.7945 141.1 18.7945C136.732 18.7945 132.631 15.736 132.631 9.7879C132.631 3.83976 136.689 0.818237 141.1 0.818237C145.511 0.818237 149.505 3.83449 149.505 9.7879ZM136.336 9.7879C136.336 13.3578 138.502 15.5515 141.1 15.5515C143.699 15.5515 145.805 13.3578 145.805 9.7879C145.805 6.21796 143.64 4.06124 141.1 4.06124C138.56 4.06124 136.336 6.21796 136.336 9.7879Z" fill="black"/>
  <path d="M150.89 9.7879C150.89 3.98214 154.718 0.818237 159.423 0.818237C162.15 0.818237 164.813 2.11016 166.021 4.2458C166.438 4.98404 166.294 6.07031 165.502 6.56599C164.775 7.01948 163.652 6.99839 163.128 6.19687C162.337 5.00513 161.15 4.10342 159.423 4.10342C156.862 4.10342 154.595 5.99122 154.595 9.7879C154.595 13.5846 156.905 15.5146 159.461 15.5146C161.086 15.5146 162.54 14.655 163.332 13.3578C163.77 12.6407 164.936 12.5352 165.684 13.0098C166.39 13.4633 166.62 14.4863 166.165 15.33C165 17.4867 162.294 18.7997 159.466 18.7997C154.766 18.7997 150.895 15.678 150.895 9.79317L150.89 9.7879Z" fill="black"/>
  <path d="M172.432 8.2903L179.319 1.49846C180.003 0.823492 181.089 0.760215 181.816 1.47737C182.543 2.19452 182.564 3.1806 181.794 3.93994L177.282 8.39049L182.65 15.8573C183.211 16.6377 183.11 17.6818 182.254 18.2777C181.42 18.8525 180.426 18.7312 179.8 17.8453L174.785 10.8478L172.432 13.168V16.9014C172.432 17.9666 171.598 18.6468 170.561 18.6468C169.524 18.6468 168.689 17.9718 168.689 16.9014V2.70074C168.689 1.63556 169.524 0.955322 170.561 0.955322C171.598 0.955322 172.432 1.63029 172.432 2.70074V8.27976V8.2903Z" fill="black"/>
</svg>