<svg width="74" height="74" viewBox="0 0 74 74" fill="none" xmlns="http://www.w3.org/2000/svg">
<path id="Vector" d="M22.1621 71.8749C21.9723 73.0892 20.8338 73.9621 19.6195 73.9621H7.58974C5.50256 73.9621 3.71897 73.2031 2.23897 71.7231C0.758974 70.2431 0 68.4595 0 66.3723V54.3426C0 53.0903 0.872821 51.9897 2.08718 51.8C3.83282 51.5344 5.46462 50.8892 6.90667 49.8646C9.79077 47.8913 11.6123 44.4 11.3467 40.9087C11.1569 38.2903 10.0185 36.1272 7.96923 34.3815C6.22359 32.9015 4.28821 31.9908 2.12513 31.6492C0.910769 31.4595 0 30.321 0 29.1067V17.0769C0 14.9897 0.758974 13.2062 2.23897 11.7262C3.71897 10.2462 5.50256 9.48718 7.58974 9.48718H20.4164C21.6308 9.48718 22.7313 8.65231 22.959 7.43795C23.3385 5.65436 24.1733 4.09846 25.5015 2.77026C27.3231 0.948718 29.6 0 32.2564 0C34.9128 0 37.1518 0.910769 39.0113 2.77026C40.3395 4.09846 41.2123 5.65436 41.5538 7.43795C41.7815 8.65231 42.882 9.48718 44.0964 9.48718H56.9231C59.0103 9.48718 60.7938 10.2462 62.2738 11.7262C63.7538 13.2062 64.5128 14.9897 64.5128 17.0769V29.9036C64.5128 31.1179 65.3477 32.2185 66.5621 32.4462C68.3456 32.8256 69.9015 33.6605 71.2297 34.9887C73.0513 36.8103 74 39.0872 74 41.7436C74 44.4 73.0892 46.639 71.2297 48.4985C69.9015 49.8267 68.3456 50.6995 66.5621 51.041C65.3477 51.2687 64.5128 52.3692 64.5128 53.5836V66.4103C64.5128 68.4974 63.7538 70.281 62.2738 71.761C60.7938 73.241 59.0103 74 56.9231 74H44.8933C43.641 74 42.5405 73.1272 42.3508 71.9128C42.0092 69.6359 41.0605 67.6626 39.5046 65.9549C37.4933 63.7538 35.1026 62.6154 32.2564 62.6154C29.4103 62.6154 26.9815 63.7159 25.0082 65.9549C23.4903 67.6626 22.5415 69.6359 22.1621 71.9128V71.8749Z" fill="#00A8FB"/>
</svg>
