<svg width="54" height="54" viewBox="0 0 54 54" fill="none" xmlns="http://www.w3.org/2000/svg">
<g id="depth_02_select">
<g id="Ellipse 12" filter="url(#filter0_d_115_37)">
<circle cx="23" cy="23" r="23" fill="#3280FF"/>
<circle cx="23" cy="23" r="21" stroke="white" stroke-width="4"/>
</g>
<path id="Vector" d="M35.6667 18.8119L35.6668 18.8119L35.6703 18.8079C36.4802 17.8944 36.4802 16.4583 35.6703 15.5448C34.8299 14.5969 33.4603 14.5962 32.6191 15.5427L20.8191 28.5601L15.4271 22.4783C14.5861 21.5297 13.215 21.5297 12.374 22.4783C11.5641 23.3917 11.5641 24.8279 12.374 25.7413L19.272 33.5218C20.1124 34.4697 21.4985 34.4704 22.3397 33.5239C22.3403 33.5232 22.3409 33.5225 22.3415 33.5218L35.6667 18.8119Z" fill="white" stroke="white"/>
</g>
<defs>
<filter id="filter0_d_115_37" x="0" y="0" width="54" height="54" filterUnits="userSpaceOnUse" color-interpolation-filters="sRGB">
<feFlood flood-opacity="0" result="BackgroundImageFix"/>
<feColorMatrix in="SourceAlpha" type="matrix" values="0 0 0 0 0 0 0 0 0 0 0 0 0 0 0 0 0 0 127 0" result="hardAlpha"/>
<feOffset dx="4" dy="4"/>
<feGaussianBlur stdDeviation="2"/>
<feComposite in2="hardAlpha" operator="out"/>
<feColorMatrix type="matrix" values="0 0 0 0 0 0 0 0 0 0 0 0 0 0 0 0 0 0 0.4 0"/>
<feBlend mode="normal" in2="BackgroundImageFix" result="effect1_dropShadow_115_37"/>
<feBlend mode="normal" in="SourceGraphic" in2="effect1_dropShadow_115_37" result="shape"/>
</filter>
</defs>
</svg>
