<svg width="42" height="42" viewBox="0 0 42 42" fill="none" xmlns="http://www.w3.org/2000/svg">
<g id="depth_01_select">
<g id="Ellipse 12" filter="url(#filter0_d_115_38)">
<circle cx="19" cy="19" r="17" fill="#3280FF"/>
<circle cx="19" cy="19" r="15.5" stroke="white" stroke-width="3"/>
</g>
<path id="Vector" d="M28.4588 15.992L28.4589 15.992L28.4624 15.988C29.1048 15.2634 29.1048 14.1277 28.4624 13.4031C27.7896 12.6442 26.6863 12.6434 26.0126 13.4009L17.3889 22.9142L13.5 18.5278C12.8265 17.7681 11.7217 17.7681 11.0482 18.5278L11.4223 18.8595L11.0482 18.5278C10.4058 19.2524 10.4058 20.3882 11.0482 21.1127L16.1467 26.8635C16.8196 27.6225 17.9351 27.6232 18.6088 26.8656C18.6094 26.8649 18.61 26.8642 18.6107 26.8635L28.4588 15.992Z" fill="white" stroke="white"/>
</g>
<defs>
<filter id="filter0_d_115_38" x="0" y="0" width="42" height="42" filterUnits="userSpaceOnUse" color-interpolation-filters="sRGB">
<feFlood flood-opacity="0" result="BackgroundImageFix"/>
<feColorMatrix in="SourceAlpha" type="matrix" values="0 0 0 0 0 0 0 0 0 0 0 0 0 0 0 0 0 0 127 0" result="hardAlpha"/>
<feOffset dx="2" dy="2"/>
<feGaussianBlur stdDeviation="2"/>
<feComposite in2="hardAlpha" operator="out"/>
<feColorMatrix type="matrix" values="0 0 0 0 0 0 0 0 0 0 0 0 0 0 0 0 0 0 0.2 0"/>
<feBlend mode="normal" in2="BackgroundImageFix" result="effect1_dropShadow_115_38"/>
<feBlend mode="normal" in="SourceGraphic" in2="effect1_dropShadow_115_38" result="shape"/>
</filter>
</defs>
</svg>
