<svg width="68" height="64" viewBox="0 0 68 64" fill="none" xmlns="http://www.w3.org/2000/svg">
<g id="Group 27">
<path id="Union" fill-rule="evenodd" clip-rule="evenodd" d="M64.9038 13.4052C64.9038 20.0603 59.5123 25.4741 52.8846 25.4741C51.4766 25.4741 50.1373 25.1983 48.9011 24.75L9.82142 63.9569L2.54121 56.6466L27.9876 31.0948L21.875 24.9569L19.4368 27.4052L14.5948 22.5431V32.3017L12.1566 34.75L0 22.5431L2.43819 20.0948H12.1222L7.28022 15.2328L19.4368 3.02586C23.4547 -1.00862 29.9794 -1.00862 33.9972 3.02586L26.717 10.3362L31.559 15.1983L29.1209 17.6466L35.2335 23.7845L41.5865 17.4052C41.1401 16.1638 40.8654 14.819 40.8654 13.4052C40.8654 6.75 46.2568 1.33621 52.8846 1.33621C54.8763 1.33621 56.7307 1.88793 58.3791 2.75L49.1071 12.0603L54.2239 17.1983L63.4958 7.88793C64.3544 9.5431 64.9038 11.4052 64.9038 13.4052ZM40.1237 43.3215L47.4084 36.0066L68 56.6834L60.7152 63.9983L40.1237 43.3215Z" fill="url(#paint0_linear_182_2276)"/>
</g>
<defs>
<linearGradient id="paint0_linear_182_2276" x1="32.4519" y1="0" x2="32.4519" y2="63.9569" gradientUnits="userSpaceOnUse">
<stop stop-color="#9747FF"/>
<stop offset="1" stop-color="#3280FF" stop-opacity="0.11"/>
</linearGradient>
</defs>
</svg>
