<svg width="68" height="57" viewBox="0 0 68 57" fill="none" xmlns="http://www.w3.org/2000/svg">
<path id="Subtract" fill-rule="evenodd" clip-rule="evenodd" d="M0 7.12531C0 3.19526 3.16884 0 7.06641 0H60.9336C64.8312 0 68 3.19526 68 7.12531V39.1892C68 43.1192 64.8312 46.3145 60.9336 46.3145H45.6194L31.9613 56.6462C31.4203 57.047 30.7026 57.1138 30.1064 56.8132C29.5102 56.5126 29.1348 55.9003 29.1348 55.2211V46.3145H7.06641C3.16884 46.3145 0 43.1192 0 39.1892V7.12531ZM19 28C21.7614 28 24 25.7614 24 23C24 20.2386 21.7614 18 19 18C16.2386 18 14 20.2386 14 23C14 25.7614 16.2386 28 19 28ZM39 23C39 25.7614 36.7614 28 34 28C31.2386 28 29 25.7614 29 23C29 20.2386 31.2386 18 34 18C36.7614 18 39 20.2386 39 23ZM49 28C51.7614 28 54 25.7614 54 23C54 20.2386 51.7614 18 49 18C46.2386 18 44 20.2386 44 23C44 25.7614 46.2386 28 49 28Z" fill="url(#paint0_linear_173_2023)"/>
<defs>
<linearGradient id="paint0_linear_173_2023" x1="0" y1="0" x2="68" y2="57" gradientUnits="userSpaceOnUse">
<stop stop-color="#896BFF"/>
<stop offset="0.0001" stop-color="#B560FF"/>
<stop offset="1" stop-color="#3280FF"/>
</linearGradient>
</defs>
</svg>
