<svg width="74" height="74" viewBox="0 0 74 74" fill="none" xmlns="http://www.w3.org/2000/svg">
<path id="Vector" d="M11.0654 15.8571V10.5714H31.4673V63.4286H25.9346C22.8743 63.4286 20.4019 65.7906 20.4019 68.7143C20.4019 71.6379 22.8743 74 25.9346 74H48.0654C51.1257 74 53.5981 71.6379 53.5981 68.7143C53.5981 65.7906 51.1257 63.4286 48.0654 63.4286H42.5327V10.5714H62.9346V15.8571C62.9346 18.7808 65.407 21.1429 68.4673 21.1429C71.5276 21.1429 74 18.7808 74 15.8571V7.92857C74 3.55134 70.2827 0 65.7009 0H37H8.29906C3.71729 0 0 3.55134 0 7.92857V15.8571C0 18.7808 2.47243 21.1429 5.53271 21.1429C8.59299 21.1429 11.0654 18.7808 11.0654 15.8571Z" fill="#FFA901"/>
</svg>
